<svg version="1.1" xmlns="http://www.w3.org/2000/svg" xmlns:xlink="http://www.w3.org/1999/xlink" width="40" height="40" viewBox="0 0 25 25" ><path id="Find" d="M22.649,5.712 C23.432,6.486 24.216,7.260 25.000,8.034 C24.798,8.240 24.635,8.406 24.453,8.590 C23.675,7.805 22.903,7.026 22.125,6.240 C21.574,6.662 20.978,6.915 20.309,6.998 C18.495,7.222 16.780,5.950 16.452,4.132 C16.122,2.308 17.299,0.511 19.094,0.096 C19.235,0.064 19.377,0.032 19.519,-0.000 C19.779,-0.000 20.040,-0.000 20.300,-0.000 C20.473,0.039 20.648,0.074 20.819,0.120 C23.177,0.761 24.180,3.541 22.774,5.538 C22.737,5.591 22.698,5.643 22.649,5.712 zM19.909,0.781 C18.390,0.786 17.170,2.019 17.180,3.540 C17.189,5.013 18.422,6.240 19.896,6.242 C21.408,6.245 22.643,5.007 22.638,3.492 C22.634,2.006 21.396,0.776 19.909,0.781 zM16.635,13.769 C16.181,15.098 15.590,16.365 14.637,17.424 C14.335,17.759 13.996,18.062 13.659,18.394 C13.920,19.018 14.304,19.579 14.844,20.034 C15.219,20.349 15.675,20.416 16.130,20.504 C17.505,20.767 18.854,21.124 20.125,21.725 C20.446,21.876 20.748,22.073 21.049,22.264 C21.587,22.606 21.829,23.118 21.856,23.742 C21.867,24.018 21.872,24.295 21.869,24.571 C21.866,24.848 21.723,24.985 21.446,24.996 C21.406,24.998 21.365,24.996 21.324,24.996 C14.405,24.996 7.485,24.995 0.565,25.000 C0.328,25.001 0.137,24.954 -0.000,24.752 C-0.000,24.394 -0.000,24.036 -0.000,23.678 C0.016,23.617 0.039,23.557 0.047,23.494 C0.104,23.037 0.311,22.666 0.673,22.376 C1.232,21.929 1.873,21.637 2.536,21.385 C3.717,20.938 4.941,20.652 6.178,20.409 C6.462,20.353 6.749,20.216 6.989,20.051 C7.503,19.698 7.999,18.977 8.219,18.357 C7.077,17.467 6.308,16.298 5.716,14.992 C4.953,13.308 4.608,11.551 4.731,9.704 C4.939,6.565 6.999,4.294 10.099,3.949 C12.163,3.719 14.010,4.222 15.496,5.738 C16.479,6.740 16.960,7.991 17.112,9.366 C17.278,10.865 17.123,12.343 16.635,13.769 zM16.291,9.179 C16.071,7.568 15.300,6.283 13.879,5.445 C12.531,4.651 11.071,4.498 9.567,4.834 C7.943,5.197 6.731,6.112 6.022,7.651 C5.472,8.845 5.438,10.103 5.536,11.380 C5.628,12.578 5.984,13.704 6.485,14.788 C7.057,16.024 7.797,17.126 8.947,17.906 C9.146,18.041 9.168,18.228 9.075,18.443 C8.813,19.052 8.487,19.622 8.053,20.125 C7.561,20.694 6.969,21.082 6.207,21.220 C5.457,21.355 4.711,21.529 3.978,21.735 C3.039,21.999 2.124,22.328 1.300,22.876 C0.795,23.212 0.791,23.692 0.787,24.204 C7.565,24.204 14.312,24.204 21.075,24.204 C21.112,23.356 20.987,23.115 20.296,22.702 C20.108,22.589 19.913,22.486 19.714,22.396 C18.471,21.831 17.163,21.477 15.824,21.247 C15.159,21.133 14.581,20.888 14.099,20.417 C13.513,19.845 13.104,19.158 12.785,18.411 C12.685,18.176 12.789,18.024 12.970,17.866 C13.392,17.500 13.828,17.141 14.195,16.723 C14.834,15.997 15.241,15.129 15.618,14.239 C16.309,12.609 16.529,10.922 16.291,9.179 z" fill="#000000" /></svg>